<?xml version="1.0" standalone="no"?>
<!DOCTYPE svg PUBLIC "-//W3C//DTD SVG 20010904//EN"
 "http://www.w3.org/TR/2001/REC-SVG-20010904/DTD/svg10.dtd">
<svg version="1.0" xmlns="http://www.w3.org/2000/svg"
 width="800.000000pt" height="800.000000pt" viewBox="0 0 800.000000 800.000000"
 preserveAspectRatio="xMidYMid meet">
<metadata>
Created by potrace 1.14, written by Peter Selinger 2001-2017
</metadata>
<g transform="translate(0.000000,800.000000) scale(0.100000,-0.100000)"
fill="#000000" stroke="none">
<path d="M0 4000 l0 -4000 4000 0 4000 0 0 4000 0 4000 -4000 0 -4000 0 0
-4000z m5204 3720 c110 -28 190 -73 272 -155 119 -119 176 -252 177 -415 0
-52 -5 -115 -12 -140 -17 -63 -66 -217 -255 -810 -41 -129 -120 -381 -176
-560 -150 -479 -219 -697 -241 -767 -11 -35 -17 -68 -13 -74 4 -7 3 -9 -2 -6
-11 6 -89 -241 -80 -251 3 -3 0 -12 -8 -21 -8 -9 -28 -63 -46 -121 -18 -58
-40 -130 -50 -160 -10 -31 -16 -69 -13 -88 3 -20 -1 -41 -11 -57 -23 -35 -20
-42 6 -14 16 19 20 20 14 5 -3 -10 -1 -26 6 -34 10 -12 10 -14 1 -8 -17 9 -17
-6 0 -24 10 -12 9 -12 -6 0 -10 7 -15 20 -12 28 3 10 0 12 -10 9 -8 -4 -17 -1
-21 5 -11 17 -17 0 -99 -257 -42 -132 -108 -339 -146 -460 -39 -121 -101 -317
-139 -435 -38 -118 -98 -307 -134 -420 -339 -1070 -500 -1576 -522 -1637 -60
-167 -201 -306 -373 -365 -97 -33 -276 -33 -379 1 -275 90 -453 382 -403 662
6 35 126 424 266 864 140 440 250 801 245 803 -5 2 -42 28 -82 57 -82 61 -594
581 -592 601 1 8 -2 11 -7 8 -9 -5 -79 57 -79 71 0 3 15 -4 32 -16 31 -21 32
-21 15 -2 -14 16 -15 22 -5 27 7 3 4 4 -8 1 -14 -4 -27 4 -42 25 -13 16 -28
30 -34 30 -7 0 -6 -5 2 -15 7 -8 9 -15 5 -15 -9 0 -95 87 -95 96 0 5 18 -10
40 -31 22 -21 40 -34 40 -27 0 7 7 12 15 12 8 0 15 5 15 10 0 15 16 12 34 -5
20 -20 40 -19 32 1 -9 23 22 56 46 48 12 -3 18 0 18 10 0 9 -1 18 -2 20 -7 11
48 56 74 61 21 5 28 11 23 22 -8 22 24 55 46 48 13 -4 19 1 24 23 3 16 16 39
28 50 22 21 25 22 53 22 11 0 14 5 10 16 -9 23 22 56 46 48 12 -4 18 0 18 11
0 8 7 18 15 21 10 4 15 20 15 45 0 28 4 39 15 39 8 0 15 -7 15 -16 0 -14 3
-14 15 -4 9 8 15 30 15 56 0 24 5 44 10 44 6 0 10 18 10 40 0 29 4 40 15 40
11 0 15 -11 15 -40 0 -71 18 -43 25 40 4 44 11 80 16 80 5 0 9 18 9 40 0 36 2
40 25 38 17 -2 25 -9 26 -23 1 -18 2 -18 7 3 4 13 12 24 17 25 6 1 9 21 7 44
-2 23 2 44 8 48 15 9 42 -15 36 -31 -3 -8 0 -11 10 -7 10 4 12 0 7 -13 -4 -12
-3 -15 6 -10 7 5 25 -6 45 -26 240 -237 359 -349 365 -342 5 5 239 736 521
1624 336 1059 525 1639 549 1685 44 87 152 197 238 243 132 70 293 89 437 52z
m-2014 -14 c0 -2 -7 -7 -16 -10 -8 -3 -12 -2 -9 4 6 10 25 14 25 6z m-84 -43
c-2 -3 -14 -2 -27 2 -16 6 -18 9 -8 16 13 7 45 -9 35 -18z m-66 -23 c0 -5 -19
-22 -42 -39 -40 -30 -45 -41 -10 -22 10 5 26 5 37 0 18 -9 18 -9 -2 -5 l-23 4
0 -724 c0 -668 1 -725 16 -722 10 2 19 -3 21 -9 3 -7 -2 -13 -10 -13 -8 0 -18
-7 -21 -16 -7 -18 -8 -64 -2 -64 2 0 13 -3 23 -6 16 -6 16 -5 -2 10 -19 15
-19 16 -1 9 13 -4 17 -3 13 4 -5 7 1 9 15 5 21 -5 21 -6 2 -13 -13 -5 -14 -8
-4 -8 11 -1 12 -4 3 -9 -6 -4 -11 -16 -10 -27 2 -22 -25 -28 -29 -7 -1 7 0 8
3 2 2 -5 9 -10 15 -10 6 0 6 6 -2 15 -14 17 -34 9 -26 -11 3 -7 -1 -24 -8 -38
-9 -18 -16 -22 -27 -15 -12 8 -12 10 1 19 8 5 10 10 5 10 -6 0 -9 19 -7 45 3
30 0 45 -8 45 -8 0 -10 -16 -8 -50 4 -43 2 -50 -11 -45 -10 4 -6 -4 8 -19 23
-25 20 -52 -5 -42 -8 3 -14 1 -14 -4 0 -5 -6 -7 -14 -4 -17 6 -31 -12 -16 -21
15 -9 12 -25 -4 -19 -9 3 -13 -1 -13 -12 1 -9 -5 -19 -13 -21 -13 -4 -13 -3 0
7 13 10 13 11 0 7 -8 -2 -14 -11 -12 -20 1 -8 -2 -18 -8 -22 -5 -3 -10 -1 -10
4 0 6 -4 11 -10 11 -5 0 -7 -7 -3 -16 4 -10 -71 -92 -250 -272 -247 -248 -303
-314 -413 -487 -122 -190 -220 -429 -253 -619 -25 -140 -7 -339 40 -444 12
-26 29 -65 39 -87 10 -22 35 -58 54 -79 20 -21 34 -41 32 -43 -2 -3 -257 246
-565 554 -596 594 -622 623 -664 758 -18 57 -22 92 -21 185 2 134 27 222 94
324 54 83 1663 1692 1681 1681 8 -5 10 -4 5 4 -10 15 60 85 75 75 8 -4 9 -3 5
5 -10 15 60 85 75 75 8 -4 9 -3 5 5 -5 7 7 26 27 46 34 34 55 46 41 23 -4 -7
-3 -8 5 -4 6 4 9 12 5 17 -3 6 4 20 16 31 18 17 24 18 31 7 7 -11 9 -9 9 7 0
11 10 29 22 40 22 19 22 19 8 0 -14 -18 -14 -19 8 -7 12 7 20 17 16 23 -4 7
-3 8 4 4 7 -4 17 -4 23 0 8 4 7 9 -2 15 -10 6 -8 9 8 9 12 0 25 5 29 12 5 7 3
8 -6 3 -8 -5 -11 -4 -6 3 7 12 36 5 36 -8z m60 -40 c0 -5 -7 -7 -15 -4 -8 4
-15 8 -15 10 0 2 7 4 15 4 8 0 15 -4 15 -10z m-3 -1397 c-3 -10 -5 -4 -5 12 0
17 2 24 5 18 2 -7 2 -21 0 -30z m94 -23 c5 0 9 4 9 9 0 5 8 12 18 15 13 6 13
3 -4 -15 -24 -23 -45 -19 -43 9 1 15 2 15 6 0 2 -10 9 -18 14 -18z m-47 -76
c3 -9 2 -12 -5 -9 -15 10 -41 -16 -34 -34 3 -8 2 -12 -2 -7 -14 13 -10 54 4
49 7 -3 13 0 13 6 0 16 17 13 24 -5z m-283 -1411 c13 -16 12 -17 -3 -4 -17 13
-22 21 -14 21 2 0 10 -8 17 -17z m19 -58 c7 -9 8 -15 2 -15 -5 0 -12 7 -16 15
-3 8 -4 15 -2 15 2 0 9 -7 16 -15z m76 -64 c-9 -11 -7 -13 12 -7 23 8 31 -7
11 -20 -15 -9 -42 20 -44 48 -1 16 -7 22 -21 20 -16 -2 -16 -1 -4 7 22 15 62
-28 46 -48z m3712 -723 c277 -277 521 -526 542 -553 78 -105 112 -210 112
-350 0 -144 -31 -239 -117 -360 -62 -86 -1120 -1139 -1136 -1129 -7 4 -10 3
-5 -4 8 -14 -60 -86 -74 -77 -5 3 -7 0 -4 -8 3 -8 -2 -17 -12 -21 -12 -5 -14
-3 -7 6 5 7 8 23 7 35 0 12 3 20 7 17 5 -3 9 2 9 10 0 9 -6 16 -13 16 -8 0
-14 7 -14 15 0 8 4 12 8 10 4 -3 10 2 13 11 3 9 6 377 6 819 0 707 -2 804 -15
809 -12 4 -14 0 -10 -22 5 -26 5 -26 -5 -4 -11 25 -5 46 11 37 5 -4 14 -3 20
1 8 5 8 8 0 13 -8 5 6 39 40 102 95 173 179 382 204 505 42 208 17 439 -61
580 -14 24 -21 44 -17 44 4 0 234 -226 511 -502z m-1868 402 c-16 -30 -22 -19
-7 13 6 14 13 22 15 17 2 -5 -2 -19 -8 -30z m37 18 c-3 -8 -6 -5 -6 6 -1 11 2
17 5 13 3 -3 4 -12 1 -19z m-2227 -283 c0 -8 -7 -15 -16 -15 -14 0 -14 3 -4
15 7 8 14 15 16 15 2 0 4 -7 4 -15z m2247 -20 c5 -4 2 -5 -4 -1 -16 9 -17 -6
-1 -22 7 -7 10 -12 7 -12 -3 0 -15 11 -27 23 -22 23 -22 24 -2 22 11 -1 23 -5
27 -10z m-2487 -220 c0 -8 -7 -15 -16 -15 -14 0 -14 3 -4 15 7 8 14 15 16 15
2 0 4 -7 4 -15z m-250 -19 c-7 -7 -13 -7 -20 0 -6 6 -3 10 10 10 13 0 16 -4
10 -10z m76 -44 c-6 -5 -36 23 -36 34 0 4 9 -1 20 -11 11 -10 18 -20 16 -23z
m79 -112 c3 -5 2 -10 -4 -10 -5 0 -13 5 -16 10 -3 6 -2 10 4 10 5 0 13 -4 16
-10z m3689 -546 c3 -8 2 -12 -4 -9 -6 3 -10 10 -10 16 0 14 7 11 14 -7z m-154
-118 c0 -2 -8 -10 -17 -17 -16 -13 -17 -12 -4 4 13 16 21 21 21 13z m127
-1597 c-13 -21 -43 -21 -43 1 0 10 10 15 27 15 23 1 25 -2 16 -16z m-87 -83
c0 -3 -4 -8 -10 -11 -5 -3 -10 -1 -10 4 0 6 5 11 10 11 6 0 10 -2 10 -4z"/>
<path d="M2930 4383 c0 -7 6 -13 13 -13 8 0 14 6 14 13 0 8 -6 14 -14 14 -7 0
-13 -6 -13 -14z"/>
<path d="M4737 4145 c-4 -8 -2 -17 3 -20 6 -4 10 3 10 14 0 25 -6 27 -13 6z"/>
<path d="M2535 3800 c-10 -11 -15 -20 -11 -20 11 0 39 30 34 36 -3 2 -13 -5
-23 -16z"/>
<path d="M2260 3634 c0 -3 7 -12 15 -20 16 -17 18 -14 9 10 -6 15 -24 23 -24
10z"/>
<path d="M2950 6835 c-3 -401 -3 -734 -1 -738 14 -32 15 91 11 738 l-5 730 -5
-730z"/>
<path d="M2910 7460 c0 -5 5 -10 10 -10 6 0 10 5 10 10 0 6 -4 10 -10 10 -5 0
-10 -4 -10 -10z"/>
<path d="M2937 5914 c3 -7 9 -14 14 -14 14 0 10 17 -5 23 -10 4 -13 1 -9 -9z"/>
<path d="M6013 3165 c-3 -9 -3 -19 1 -22 3 -4 6 1 6 10 0 8 6 18 13 20 9 4 9
6 -1 6 -7 1 -15 -6 -19 -14z"/>
<path d="M6010 1444 c0 -8 5 -12 10 -9 6 3 10 10 10 16 0 5 -4 9 -10 9 -5 0
-10 -7 -10 -16z"/>
</g>
</svg>
