<?xml version="1.0" standalone="no"?>
<!DOCTYPE svg PUBLIC "-//W3C//DTD SVG 20010904//EN"
 "http://www.w3.org/TR/2001/REC-SVG-20010904/DTD/svg10.dtd">
<svg version="1.0" xmlns="http://www.w3.org/2000/svg"
 width="100.000000pt" height="100.000000pt" viewBox="0 0 100.000000 100.000000"
 preserveAspectRatio="xMidYMid meet">
<metadata>
Created by potrace 1.14, written by Peter Selinger 2001-2017
</metadata>
<g transform="translate(0.000000,100.000000) scale(0.100000,-0.100000)"
fill="#000000" stroke="none">
<path d="M489 849 c-19 -9 -44 -27 -56 -38 -26 -25 -78 -28 -100 -5 -21 20
-73 11 -92 -16 -7 -11 -19 -20 -25 -20 -12 0 -44 -22 -77 -52 -11 -10 -19 -27
-19 -38 0 -20 27 -54 49 -61 17 -6 4 -33 -21 -44 -42 -19 -68 -72 -65 -131 3
-56 19 -84 48 -84 10 0 21 -4 24 -10 3 -5 14 -10 24 -10 12 0 21 -14 30 -52
37 -143 221 -205 337 -113 26 21 30 21 65 7 48 -19 103 -9 136 24 13 13 35 24
49 24 90 0 150 95 109 174 -11 20 -13 43 -9 80 8 63 -19 125 -66 153 -16 9
-30 23 -30 29 0 7 -3 19 -6 28 -5 12 0 16 21 16 30 0 30 23 0 28 -9 2 -38 24
-63 49 -80 81 -182 104 -263 62z"/>
</g>
</svg>
